<?xml version="1.0" encoding="UTF-8"?><svg id="Layer_1" xmlns="http://www.w3.org/2000/svg" viewBox="0 0 360 360"><defs><style>.cls-1{fill:none;stroke:#fff;stroke-miterlimit:10;stroke-width:9px;}.cls-2{fill:#f26c4e;stroke-width:0px;}</style></defs><path class="cls-1" d="m240.74,232.33c-16.33,22.81-43.04,37.67-73.23,37.67-49.71,0-90-40.29-90-90s40.29-90,90-90,90,40.29,90,90c0,7.78-.99,15.34-2.85,22.54"/><path class="cls-1" d="m152.96,176.92c-2.03-8.94-12.02-14.38-21.17-13.81-14.22.88-23.82,14-22.42,28.18s13.53,26.63,27.64,24.71c11.67-1.58,21.01-10.73,26.99-20.88,11.23-19.36,4.33-49.75,28.19-57.64,5.53-1.83,16.69-1.58,23.89,5.06,8.66,7.99,7.81,22.66,1.02,31.96s-17.06,15.32-27.03,21.07c22.6,1.52,54.47,19.18,72.89,32.38"/><circle class="cls-2" cx="275.29" cy="233.99" r="7.2"/></svg>